# xmcd CD database file
#
# Track frame offsets:
#	150
#	35028
#	56517
#	81699
#	114486
#	135424
#	168291
#	192718
#	213122
#	236672
#	270906
#
# Disc length: 4003 seconds
#
# Revision: 1
# Processed by: cddbd v1.4PL0 Copyright (c) Steve Scherf et al.
# Submitted via: CDex 1.50
#
DISCID=9a0fa10b
DTITLE=DJ Samant - Promo
DYEAR=2004
DGENRE=Jazz
TTITLE0=Kerry Chandler - It Will Come To Pass
TTITLE1=Duron Tarik and Intense - I am
TTITLE2=Only Child (remix by Llorca) - Addicted
TTITLE3=Don Carlos - Take Me Higher
TTITLE4=Jersey Street Allstars - Burnin'
TTITLE5=Kerry Chandler - Things I See
TTITLE6=Mousse T - Toscana
TTITLE7=T. Kolia - Line Affaire
TTITLE8=Riverside Soul - Raindrops
TTITLE9=Mondo Grosso - BLZ
TTITLE10=Kerry Chandler - Can U Feel It?
EXTD=YEAR: 2004
EXTT0=
EXTT1=
EXTT2=
EXTT3=
EXTT4=
EXTT5=
EXTT6=
EXTT7=
EXTT8=
EXTT9=
EXTT10=
PLAYORDER=
